<svg width="136" height="620" viewBox="0 0 136 620" fill="none" xmlns="http://www.w3.org/2000/svg">
<path d="M40.472 16.8728C30.8878 11.3604 10.7918 2.51912 0.0422974 0.848694H135.5V619.849H16.6898C37.7608 615.374 63.0769 607.213 80.9016 595.007C115.017 571.657 132.497 532.008 132.033 491.238C131.843 474.975 127.301 451.947 122.497 436.352C118.156 422.309 111.842 408.289 111.818 393.399L113.008 363.57C99.9274 365.92 86.8948 364.441 76.1928 355.778C71.8288 352.247 68.1663 346.865 65.2173 342.093C53.7424 323.503 48.5103 304.114 47.5591 282.435L46.5245 269.31C47.7136 248.191 49.3784 220.963 73.767 214.341C77.263 213.386 80.8541 213.124 84.469 213.279C87.2396 213.398 88.94 213.78 91.6036 214.425C88.7379 206.55 84.0766 199.224 83.5296 190.561L92.5549 146.414C99.8085 109.772 99.8798 70.1117 72.5303 41.4162C62.6964 31.0953 52.7673 23.9364 40.472 16.8728Z" fill="white" stroke="white" stroke-width="0.32"/>
</svg>
